<svg xmlns="http://www.w3.org/2000/svg" width="19" height="19" viewBox="0 0 19 19"><defs><style>.btn-popup-close{fill:#b59463;fill-rule:evenodd}</style></defs><path id="btn-popup-close.svg" class="btn-popup-close" d="M1127 268h-1v-1h1v1zm1 1h-1v-1h1v1zm1 1h-1v-1h1v1zm1 1h-1v-1h1v1zm1 1h-1v-1h1v1zm1 1h-1v-1h1v1zm1 1h-1v-1h1v1zm1 1h-1v-1h1v1zm1 1h-1v-1h1v1zm-10-9v-1h1v1h-1zm-1 1v-1h1v1h-1zm-1 1v-1h1v1h-1zm-1 1v-1h1v1h-1zm-1 1v-1h1v1h-1zm-1 1v-1h1v1h-1zm-1 1v-1h1v1h-1zm-1 1v-1h1v1h-1zm-1 1v-1h1v1h-1zm-1 1v-1h1v1h-1zm8-11h1v1h-1v-1zm-1-1h1v1h-1v-1zm-1-1h1v1h-1v-1zm-1-1h1v1h-1v-1zm-1-1h1v1h-1v-1zm-1-1h1v1h-1v-1zm-1-1h1v1h-1v-1zm-1-1h1v1h-1v-1zm-1-1h1v1h-1v-1zm11 8v1h-1v-1h1zm1-1v1h-1v-1h1zm1-1v1h-1v-1h1zm1-1v1h-1v-1h1zm1-1v1h-1v-1h1zm1-1v1h-1v-1h1zm1-1v1h-1v-1h1zm1-1v1h-1v-1h1zm1-1v1h-1v-1h1z" transform="translate(-1116 -257)"/></svg>