<svg xmlns="http://www.w3.org/2000/svg" width="25" height="13" viewBox="0 0 25 13"><defs><style>.btn-accordion-open{fill:#fbbeb9;fill-rule:evenodd}</style></defs><path id="btn-accordion-open.svg" class="btn-accordion-open" d="M1224 120h1v1h-1v-1zm1-1h1v1h-1v-1zm1-1h1v1h-1v-1zm1-1h1v1h-1v-1zm1-1h1v1h-1v-1zm1-1h1v1h-1v-1zm1-1h1v1h-1v-1zm1-1h1v1h-1v-1zm1-1h1v1h-1v-1zm1-1h1v1h-1v-1zm1-1h1v1h-1v-1zm1-1h1v1h-1v-1zm1-1h1v1h-1v-1zm1 1h1v1h-1v-1zm1 1h1v1h-1v-1zm1 1h1v1h-1v-1zm1 1h1v1h-1v-1zm1 1h1v1h-1v-1zm1 1h1v1h-1v-1zm1 1h1v1h-1v-1zm1 1h1v1h-1v-1zm1 1h1v1h-1v-1zm1 1h1v1h-1v-1zm1 1h1v1h-1v-1zm1 1h1v1h-1v-1z" transform="translate(-1224 -108)"/></svg>