<svg id="icon-sub-title.svg" xmlns="http://www.w3.org/2000/svg" width="20" height="20" viewBox="0 0 20 20"><defs><style>.icon-sub-title1{fill:#d5d5d5}.icon-sub-title2{fill:#fff;fill-rule:evenodd;filter:url(#filter)}</style><filter id="filter" x="348" y="50" width="12" height="11" filterUnits="userSpaceOnUse"><feFlood result="flood" flood-color="#fff"/><feComposite result="composite" operator="in" in2="SourceGraphic"/><feBlend result="blend" in2="SourceGraphic"/></filter></defs><circle class="icon-sub-title1" cx="10" cy="10" r="10"/><path class="icon-sub-title2" d="M359.576 56.712l-3.766 3.8a1.366 1.366 0 0 1-2.079 0 1.773 1.773 0 0 1 0-2.316l1.107-1.117H349.4a1.593 1.593 0 0 1 0-3.163h5.448l-1.119-1.129a1.773 1.773 0 0 1 0-2.316 1.366 1.366 0 0 1 2.079 0l3.766 3.8a1.977 1.977 0 0 1 .002 2.441z" transform="translate(-344 -45)"/></svg>