<svg xmlns="http://www.w3.org/2000/svg" width="18" height="16" viewBox="0 0 18 16"><defs><style>.icon-list-item-04{fill:#464646;fill-rule:evenodd}</style></defs><path id="icon-list-item-04.svg" class="icon-list-item-04" d="M1416 793.805a.361.361 0 0 0 .63 0v-1.53l.76 1.275s.38.728.76.127v-2.55a.4.4 0 0 0-.5 0v1.53l-.89-1.4a.493.493 0 0 0-.76 0v2.55zm2.66-.128v-2.3a.2.2 0 0 1 .25-.255h1.27a.329.329 0 0 1 0 .51h-.89v.638h.76a.223.223 0 0 1 0 .382h-.76v.765h.89s.28.319 0 .51h-1.27s-.19.133-.25-.25zm1.9-2.55l.63 2.805a.6.6 0 0 0 .63-.127l.51-1.4.38 1.4a.444.444 0 0 0 .63 0l.76-2.55a.46.46 0 0 0-.51-.128l-.5 1.658-.51-1.658s-.39-.223-.5.128l-.51 1.53-.51-1.658a.413.413 0 0 0-.5 0zm5.31.51s.22-.526-.76-.637a.858.858 0 0 0-.88.765.748.748 0 0 0 .5.892.767.767 0 0 1 .64.51.44.44 0 0 1-.76.128s-.43-.271-.51.127a.579.579 0 0 0 .63.51.97.97 0 0 0 1.27-.765.892.892 0 0 0-.76-.892.463.463 0 0 1-.38-.383.309.309 0 0 1 .38-.382s.38.398.63.127zM1414 795h-3s-1.03.079-1 .783v8.1s.21 2.248 2.23 2.114h13.88a1.965 1.965 0 0 0 1.89-2.231V790.5a1.146 1.146 0 0 0-1-.5h-12s-1.09.325-1 1v4zm-3 1h3v7.886a.967.967 0 0 1-1 1.114s-1.73.124-2-1v-8zm4-5h12v13a.886.886 0 0 1-1 1h-12a2.106 2.106 0 0 0 1-1v-13zm1 4h10v1h-10v-1zm0 2h6v1h-6v-1zm0 2h6v1h-6v-1zm0 2h10v1h-10v-1zm0 2h10v1h-10v-1zm7-6h3v3h-3v-3zm1 1h1v1h-1v-1z" transform="translate(-1410 -790)"/></svg>