<svg xmlns="http://www.w3.org/2000/svg" width="42" height="47" viewBox="0 0 42 47"><defs><style>.icon-link-04{fill:#596273;fill-rule:evenodd}</style></defs><path id="icon_icon-link-04.svg" data-name="icon/icon-link-04.svg" class="icon-link-04" d="M1428.73 1042h-28.83c-6.43 0-6.9-6.35-6.9-6.35v-29.22c.31-6.667 6.27-6.984 6.27-6.984-.16 7.144 3.76 6.354 3.76 6.354 4.56.43 3.97-6.8 3.97-6.8h15c-.88 6.54 3.6 6.8 3.6 6.8 4.62-.11 3.13-6.354 3.13-6.354 4.7.159 6.27 5.714 6.27 5.714v30.49a6.756 6.756 0 0 1-6.27 6.35zm3.27-30h-35v23a3.286 3.286 0 0 0 4 3h28s3 1 3-4v-22zm-9 10h6v6h-6v-6zm0-8h6v6h-6v-6zm-8 16h6v6h-6v-6zm0-8h6v6h-6v-6zm0-8h6v6h-6v-6zm-8 16h6v6h-6v-6zm0-8h6v6h-6v-6zm0-8h6v6h-6v-6zm-8 16h6v6h-6v-6zm0-8h6v6h-6v-6zm0-8h6v6h-6v-6zm28-10h-2s-1.25 0-1-2v-5s-.5-1.917 1-2h2s1.17-.083 1 2v5s.33 2.08-1 2zm-23 0h-2s-1.08-.25-1-2v-5s-.5-1.917 1-2h2s1 .167 1 2v5s-.08 2-1 2z" transform="translate(-1393 -995)"/></svg>