<svg id="icon-img-type.svg" xmlns="http://www.w3.org/2000/svg" width="18" height="18" viewBox="0 0 18 18"><defs><style>.icon-img-type-1,.icon-img-type-2{fill:#09c;fill-rule:evenodd}.icon-img-type-2{fill:#fff}</style></defs><path id="icon-img-type" class="icon-img-type-1" d="M682 723h18v18h-18v-18zm3 3h5v5h-5v-5zm7 0h5v5h-5v-5zm-7 7h5v5h-5v-5zm7 0h5v5h-5v-5z" transform="translate(-682 -723)"/><path id="icon-img-type-2" data-name="icon" class="icon-img-type-2" d="M692 726h5v5h-5v-5zm-7 0h5v5h-5v-5zm0 7h5v5h-5v-5zm7 0h5v5h-5v-5z" transform="translate(-682 -723)"/></svg>