<svg xmlns="http://www.w3.org/2000/svg" width="15" height="17" viewBox="0 0 15 17"><defs><style>.icon-list-item-03{fill:#464646;fill-rule:evenodd}</style></defs><path id="icon-list-item-03.svg" class="icon-list-item-03" d="M1387 789h15v17h-15v-17zm1 1h13v3h-13v-3zm0 4h13v7h-13v-7zm0 8h13v3h-13v-3zm.26-10.719h.67a.29.29 0 0 1 .29.29v.014a.29.29 0 0 1-.29.29h-.67a.29.29 0 0 1-.29-.29v-.014a.29.29 0 0 1 .29-.29zm1.87 0h.64a.29.29 0 0 1 .29.29v.014a.29.29 0 0 1-.29.29h-.64a.29.29 0 0 1-.29-.29v-.014a.29.29 0 0 1 .29-.29zm1.88 0h.64a.29.29 0 0 1 .29.29v.014a.29.29 0 0 1-.29.29h-.64a.29.29 0 0 1-.29-.29v-.014a.29.29 0 0 1 .29-.29zm1.84 0h.67a.29.29 0 0 1 .29.29v.014a.29.29 0 0 1-.29.29h-.67a.29.29 0 0 1-.29-.29v-.014a.29.29 0 0 1 .29-.29zm1.88 0h.64a.29.29 0 0 1 .29.29v.014a.29.29 0 0 1-.29.29h-.64a.29.29 0 0 1-.29-.29v-.014a.29.29 0 0 1 .29-.29zm1.97 0h.6a.29.29 0 0 1 .29.29v.014a.29.29 0 0 1-.29.29h-.6a.29.29 0 0 1-.29-.29v-.014a.29.29 0 0 1 .29-.29zm1.84 0h.64a.29.29 0 0 1 .29.29v.014a.29.29 0 0 1-.29.29h-.64a.29.29 0 0 1-.29-.29v-.014a.29.29 0 0 1 .29-.29zm-11.28 11.844h.67a.29.29 0 0 1 .29.289v.015a.29.29 0 0 1-.29.29h-.67a.29.29 0 0 1-.29-.29v-.015a.29.29 0 0 1 .29-.289zm1.87 0h.64a.29.29 0 0 1 .29.289v.015a.29.29 0 0 1-.29.29h-.64a.29.29 0 0 1-.29-.29v-.015a.29.29 0 0 1 .29-.289zm1.88 0h.64a.29.29 0 0 1 .29.289v.015a.29.29 0 0 1-.29.29h-.64a.29.29 0 0 1-.29-.29v-.015a.29.29 0 0 1 .29-.289zm1.84 0h.67a.29.29 0 0 1 .29.289v.015a.29.29 0 0 1-.29.29h-.67a.29.29 0 0 1-.29-.29v-.015a.29.29 0 0 1 .29-.289zm1.88 0h.64a.29.29 0 0 1 .29.289v.015a.29.29 0 0 1-.29.29h-.64a.29.29 0 0 1-.29-.29v-.015a.29.29 0 0 1 .29-.289zm1.97 0h.6a.29.29 0 0 1 .29.289v.015a.29.29 0 0 1-.29.29h-.6a.29.29 0 0 1-.29-.29v-.015a.29.29 0 0 1 .29-.289zm1.84 0h.64a.29.29 0 0 1 .29.289v.015a.29.29 0 0 1-.29.29h-.64a.29.29 0 0 1-.29-.29v-.015a.29.29 0 0 1 .29-.289zm-7.51-8.422v5.597s-.02.541.65.244l5.21-2.838a.3.3 0 0 0 0-.406l-5.21-2.838s-.63-.503-.65.238zM1393 796v3l3.16-1.541z" transform="translate(-1387 -789)"/></svg>