<svg xmlns="http://www.w3.org/2000/svg" width="49.09" height="44.094" viewBox="0 0 49.09 44.094"><defs><style>.icon-link-01{fill:#596273;fill-rule:evenodd}</style></defs><path id="icon_icon-link-01.svg" data-name="icon/icon-link-01.svg" class="icon-link-01" d="M1245.65 881.2s12.06.15 13.56 12.556c0 0 .46 6.128-2.71 8.071a1.388 1.388 0 0 0 .9 1.794s4.7 4.343 5.43 6.277c0 0 1.7 4.86-5.43 5.381l-5.42-6.279a1.7 1.7 0 0 0-1.81-.9s-4.07.9-5.43 0c0 0-11.75.3-12.66-13.453 0 .007-.3-12.847 13.57-13.447zm0 4.484a8.969 8.969 0 1 1-9.04 8.968 9.006 9.006 0 0 1 9.04-8.966zM1248 874v2h-29s-3.33-.333-3 2c0 0-.5 2.667 2 3h17s-7 5.833-7 14c0 0-.83 13.5 15 16h6v4s-.83 3.333-4 3h-26s-5 1-5-4v-35s-1.33-5.333 6-5h28z" transform="translate(-1213.91 -874)"/></svg>