<svg xmlns="http://www.w3.org/2000/svg" width="50.09" height="48.031" viewBox="0 0 50.09 48.031"><defs><style>.icon-link-02{fill:#596273;fill-rule:evenodd}</style></defs><path id="icon_icon-link-02.svg" data-name="icon/icon-link-02.svg" class="icon-link-02" d="M1392 882v-2s-.57-5.714 6-6h34s6-.143 6 6v35s1.14 7.428-6 7h-34s-5.71.571-6-5v-3h-2s-1.76.4-2-1v-2s-.43-2.119 2-2h2v-9h-2a1.894 1.894 0 0 1-2-2v-1s-.43-1.857 2-2h2v-8h-2s-1.82.4-2-2v-1a1.8 1.8 0 0 1 2-2h2zm9-5v42h30s4.08.5 4-4v-34s.75-4.417-4-4h-30zm16 5s6.75-1.25 7 6v2s-1.63.25 0 1c0 0-.29 6.042-3 6 0 0-.48 1.525 0 2 0 0 8.37 4.875 10 7 0 0 1.37.25 1 7h-29v-2s.62-4.375 3-6a24.146 24.146 0 0 0 7-5s-.25-1.375 1-1c0 0 1.25-1.5-1-2 0 0-1.63-.75-1-4 0 0-2.63-.25-1-2v-1s-1.5-7.375 6-8zm1 20s1.25 0 1 1c0 0 0 1.25-1 1v2s1.08 0 1 2c0 0 .17 3.167-1 4s-1 0-1 0a3.913 3.913 0 0 1-1-3v-2a1.11 1.11 0 0 1 1-1v-2a.846.846 0 0 1-1-1 .943.943 0 0 1 1-1h1z" transform="translate(-1387.97 -874)"/></svg>