<svg xmlns="http://www.w3.org/2000/svg" width="30" height="23" viewBox="0 0 30 23"><defs><style>.icon-url-copy{fill:#b3b3b3;fill-rule:evenodd}</style></defs><path id="icon-url-copy.svg" class="icon-url-copy" d="M842 435h-12a3.622 3.622 0 0 1-3-3v-7a2.982 2.982 0 0 1 3-3h26v-1h-26.147s-3.857.13-3.853 4v7a3.945 3.945 0 0 0 4 4h13zm7 0a28.621 28.621 0 0 1 3 1h4v-1h-7zm-5.873-1.177l9.655 3.867-3.42 1.221 2.414 2.443-1.408 1.425-2.414-2.646-1.206 3.867zM829 427l1 4h1l1-2 1 2h1l1-4h-1l-1 2v-2h-2v2l-1-2h-1zm6.283.106l.8 3.46h1.217l.6-2.239.8 2.239h1l1.006-3.46h-1.207l-.4 2.239-.6-2.239H837.3l-.4 2.035-.6-2.035h-1.006zm5.833 0l1.006 3.46h1l.6-2.442.8 2.442h1.006l1.006-3.46h-1.194l-.4 2.239-.6-2.239h-1.207l-.4 2.239-.6-2.239h-1.006zm6.634-.2a.61.61 0 1 1-.594.609.6.6 0 0 1 .594-.609zm-.2 2.438a.609.609 0 1 1-.61.609.609.609 0 0 1 .607-.609zM850 426l-1 5h1l1-5h-1zm3 0l-1 5h1l1-5h-1z" transform="translate(-826 -421)"/></svg>